<svg xmlns="http://www.w3.org/2000/svg" xmlns:xlink="http://www.w3.org/1999/xlink" width="225" height="26" viewBox="0 0 225 26">
    <defs>
        <linearGradient id="a" x1="0%" y1="50%" y2="50%">
            <stop offset="0%" stop-color="#FDCA95"/>
            <stop offset="100%" stop-color="#C03924"/>
        </linearGradient>
        <linearGradient id="c" x1="100%" x2="0%" y1="50%" y2="50%">
            <stop offset="0%" stop-color="#D66D4D"/>
            <stop offset="100%" stop-color="#CC573B"/>
        </linearGradient>
        <ellipse id="b" cx="13.324" cy="13.057" rx="13.044" ry="12.919"/>
        <linearGradient id="e" x1="0%" y1="100%" y2="100%">
            <stop offset="0%" stop-color="#F8BE8B"/>
            <stop offset="100%" stop-color="#F0AA7C"/>
        </linearGradient>
        <path id="d" d="M11.536.34l11.332 24.081-22.665.01z"/>
    </defs>
    <g fill="none" fill-rule="evenodd">
        <path fill="url(#a)" d="M14.086 7.048c-.437-.546-1.028-.95-1.775-1.212-.746-.262-1.453-.392-2.12-.392-.39 0-.792.045-1.205.136a4.651 4.651 0 0 0-1.172.427c-.368.193-.666.449-.896.768-.23.318-.345.705-.345 1.16 0 .728.276 1.285.827 1.672.552.387 1.247.717 2.085.99.839.273 1.74.546 2.706.82.965.272 1.866.659 2.705 1.16a6.376 6.376 0 0 1 2.085 2.013c.551.842.827 1.968.827 3.379 0 1.342-.253 2.514-.758 3.515A7.148 7.148 0 0 1 15 23.976c-.862.66-1.862 1.149-2.999 1.467a13.293 13.293 0 0 1-3.601.478c-1.585 0-3.056-.239-4.411-.717-1.356-.478-2.62-1.251-3.79-2.32l3.824-4.164a5.573 5.573 0 0 0 2.085 1.69 6 6 0 0 0 2.602.596c.437 0 .879-.05 1.327-.153.448-.103.85-.256 1.206-.46.356-.206.643-.467.861-.786.219-.318.328-.694.328-1.126 0-.728-.282-1.303-.844-1.724-.563-.42-1.27-.779-2.12-1.075a66.133 66.133 0 0 0-2.757-.887A12.443 12.443 0 0 1 3.954 13.6a6.618 6.618 0 0 1-2.119-1.98C1.272 10.803.991 9.722.991 8.38c0-1.297.258-2.435.775-3.413a7.421 7.421 0 0 1 2.068-2.458c.861-.66 1.855-1.154 2.98-1.484a12.312 12.312 0 0 1 3.481-.495c1.379 0 2.711.193 3.998.58a9.244 9.244 0 0 1 3.48 1.945l-3.687 3.994zm34.697-5.905h7.306l10.373 16.792h.069V1.143h5.376v24.164h-7.03L54.228 8.106h-.069v17.2h-5.376V1.144zm29.529 0h8.064c1.952 0 3.808.216 5.565.649 1.758.432 3.291 1.132 4.6 2.099 1.31.967 2.35 2.224 3.12 3.77.77 1.548 1.154 3.425 1.154 5.632 0 1.957-.373 3.68-1.12 5.17a11.137 11.137 0 0 1-3.015 3.755c-1.264 1.012-2.723 1.78-4.377 2.304a17.149 17.149 0 0 1-5.204.785h-8.787V1.143zm5.376 19.25h2.791c1.24 0 2.395-.126 3.463-.376 1.069-.25 1.993-.666 2.774-1.246.782-.58 1.396-1.342 1.844-2.287.448-.944.672-2.099.672-3.464 0-1.183-.224-2.213-.672-3.089a6.19 6.19 0 0 0-1.81-2.167c-.757-.569-1.647-.995-2.67-1.28a11.969 11.969 0 0 0-3.222-.426h-3.17v14.334zm34.284-13.345c-.437-.546-1.029-.95-1.775-1.212-.747-.262-1.453-.392-2.12-.392-.39 0-.792.045-1.206.136a4.651 4.651 0 0 0-1.171.427c-.368.193-.667.449-.896.768-.23.318-.345.705-.345 1.16 0 .728.276 1.285.827 1.672.551.387 1.246.717 2.085.99s1.74.546 2.705.82c.965.272 1.867.659 2.705 1.16a6.376 6.376 0 0 1 2.085 2.013c.552.842.827 1.968.827 3.379 0 1.342-.252 2.514-.758 3.515a7.148 7.148 0 0 1-2.05 2.492c-.862.66-1.861 1.149-2.998 1.467a13.293 13.293 0 0 1-3.602.478c-1.585 0-3.055-.239-4.41-.717-1.356-.478-2.62-1.251-3.791-2.32l3.825-4.164a5.573 5.573 0 0 0 2.085 1.69 6 6 0 0 0 2.602.596c.436 0 .878-.05 1.326-.153.448-.103.85-.256 1.206-.46.357-.206.644-.467.862-.786.218-.318.327-.694.327-1.126 0-.728-.281-1.303-.844-1.724-.563-.42-1.27-.779-2.12-1.075a66.133 66.133 0 0 0-2.756-.887 12.443 12.443 0 0 1-2.757-1.195 6.618 6.618 0 0 1-2.12-1.98c-.562-.818-.844-1.899-.844-3.241 0-1.297.259-2.435.776-3.413a7.421 7.421 0 0 1 2.067-2.458c.862-.66 1.855-1.154 2.981-1.484a12.312 12.312 0 0 1 3.48-.495c1.38 0 2.712.193 3.998.58a9.244 9.244 0 0 1 3.48 1.945l-3.686 3.994zm14.604-1.195h-6.962v-4.71h19.299v4.71h-6.962v19.454h-5.375V5.853zm45.894-4.71h7.306l10.373 16.792h.069V1.143h5.376v24.164h-7.03L183.915 8.106h-.069v17.2h-5.376V1.144zm29.014 0h16.576v4.915h-11.2v4.505h10.58v4.914h-10.58v4.915h11.82v4.915h-17.196V1.143z"/>
        <use fill="url(#c)" transform="matrix(-1 0 0 1 174.202 0)" xlink:href="#b"/>
        <use fill="url(#e)" transform="translate(21.135 .876)" xlink:href="#d"/>
    </g>
</svg>
